<svg width="195" height="56" viewBox="0 0 195 56" fill="none" xmlns="http://www.w3.org/2000/svg">
<path d="M93.9375 16.8281V19.6406C96.4271 19.7031 98.4115 20.1354 99.8906 20.9375C101.37 21.7396 102.438 22.776 103.094 24.0469C103.75 25.3073 104.078 26.6771 104.078 28.1562C104.078 29.125 103.911 30.1094 103.578 31.1094C103.245 32.1094 102.688 33.0312 101.906 33.875C101.135 34.7188 100.099 35.4062 98.7969 35.9375C97.4948 36.4688 95.875 36.7552 93.9375 36.7969V40.3125H89.5781V36.7969C87.6094 36.7552 85.9688 36.4688 84.6562 35.9375C83.3542 35.3958 82.3177 34.7031 81.5469 33.8594C80.7865 33.0052 80.2448 32.0781 79.9219 31.0781C79.599 30.0781 79.4375 29.1042 79.4375 28.1562C79.4375 27.0417 79.6146 25.9844 79.9688 24.9844C80.3333 23.9844 80.9115 23.0938 81.7031 22.3125C82.5052 21.5208 83.5521 20.8906 84.8438 20.4219C86.1354 19.9531 87.7135 19.6927 89.5781 19.6406V16.8281H93.9375ZM89.5781 23.4219C88.1927 23.4844 87.0885 23.724 86.2656 24.1406C85.4531 24.5573 84.8698 25.1094 84.5156 25.7969C84.1615 26.474 83.9844 27.25 83.9844 28.125C83.9844 29.0833 84.1771 29.9219 84.5625 30.6406C84.9583 31.3594 85.5677 31.9271 86.3906 32.3438C87.224 32.7604 88.2865 33 89.5781 33.0625V23.4219ZM93.9375 23.4219V33.0625C95.2396 33 96.3021 32.7604 97.125 32.3438C97.9479 31.9271 98.5521 31.3594 98.9375 30.6406C99.3333 29.9219 99.5312 29.0833 99.5312 28.125C99.5312 27.25 99.3542 26.474 99 25.7969C98.6458 25.1094 98.0573 24.5573 97.2344 24.1406C96.4219 23.724 95.3229 23.4844 93.9375 23.4219ZM129.141 28.5469C129.141 30.3073 128.922 31.9115 128.484 33.3594C128.047 34.7969 127.38 36.0365 126.484 37.0781C125.599 38.1198 124.474 38.9219 123.109 39.4844C121.745 40.0365 120.13 40.3125 118.266 40.3125C116.401 40.3125 114.786 40.0365 113.422 39.4844C112.057 38.9219 110.927 38.1198 110.031 37.0781C109.146 36.0365 108.484 34.7917 108.047 33.3438C107.609 31.8958 107.391 30.2865 107.391 28.5156C107.391 26.151 107.776 24.0938 108.547 22.3438C109.328 20.5833 110.526 19.2188 112.141 18.25C113.755 17.2812 115.807 16.7969 118.297 16.7969C120.776 16.7969 122.812 17.2812 124.406 18.25C126.01 19.2188 127.198 20.5833 127.969 22.3438C128.75 24.1042 129.141 26.1719 129.141 28.5469ZM112.469 28.5469C112.469 30.1406 112.667 31.5156 113.062 32.6719C113.469 33.8177 114.099 34.7031 114.953 35.3281C115.807 35.9427 116.911 36.25 118.266 36.25C119.641 36.25 120.755 35.9427 121.609 35.3281C122.464 34.7031 123.083 33.8177 123.469 32.6719C123.865 31.5156 124.062 30.1406 124.062 28.5469C124.062 26.151 123.615 24.2656 122.719 22.8906C121.823 21.5156 120.349 20.8281 118.297 20.8281C116.932 20.8281 115.818 21.1406 114.953 21.7656C114.099 22.3802 113.469 23.2656 113.062 24.4219C112.667 25.5677 112.469 26.9427 112.469 28.5469ZM152.5 40H147L138.719 28.4219V40H133.875V17.1562H138.719V28.2188L146.906 17.1562H152.062L143.734 28.125L152.5 40ZM173.719 17.1562L166.641 33.3125C166.005 34.7708 165.328 36.026 164.609 37.0781C163.891 38.1198 162.979 38.9219 161.875 39.4844C160.771 40.0365 159.323 40.3125 157.531 40.3125C156.969 40.3125 156.359 40.2708 155.703 40.1875C155.047 40.1146 154.438 40 153.875 39.8438V35.6875C154.396 35.8854 154.958 36.0312 155.562 36.125C156.177 36.2083 156.755 36.25 157.297 36.25C158.005 36.25 158.578 36.1302 159.016 35.8906C159.453 35.651 159.802 35.3281 160.062 34.9219C160.323 34.5156 160.542 34.0625 160.719 33.5625L152.812 17.1562H157.938L162.203 27.0469C162.297 27.2552 162.417 27.5365 162.562 27.8906C162.719 28.2344 162.87 28.5885 163.016 28.9531C163.172 29.3073 163.292 29.6198 163.375 29.8906H163.547C163.63 29.6302 163.74 29.3177 163.875 28.9531C164.021 28.5781 164.172 28.1979 164.328 27.8125C164.484 27.4167 164.625 27.0625 164.75 26.75L168.719 17.1562H173.719ZM186.297 20.8594C185.37 20.8594 184.547 21.0417 183.828 21.4062C183.12 21.7604 182.521 22.276 182.031 22.9531C181.552 23.6302 181.188 24.4479 180.938 25.4062C180.688 26.3646 180.562 27.4427 180.562 28.6406C180.562 30.2552 180.76 31.6354 181.156 32.7812C181.562 33.9167 182.188 34.7865 183.031 35.3906C183.875 35.9844 184.964 36.2812 186.297 36.2812C187.224 36.2812 188.151 36.1771 189.078 35.9688C190.016 35.7604 191.031 35.4635 192.125 35.0781V39.1406C191.115 39.5573 190.12 39.8542 189.141 40.0312C188.161 40.2188 187.062 40.3125 185.844 40.3125C183.49 40.3125 181.552 39.8281 180.031 38.8594C178.521 37.8802 177.401 36.5156 176.672 34.7656C175.943 33.0052 175.578 30.9531 175.578 28.6094C175.578 26.8802 175.812 25.2969 176.281 23.8594C176.75 22.4219 177.438 21.1771 178.344 20.125C179.25 19.0729 180.37 18.2604 181.703 17.6875C183.036 17.1146 184.568 16.8281 186.297 16.8281C187.432 16.8281 188.568 16.974 189.703 17.2656C190.849 17.5469 191.943 17.9375 192.984 18.4375L191.422 22.375C190.568 21.9688 189.708 21.6146 188.844 21.3125C187.979 21.0104 187.13 20.8594 186.297 20.8594Z" fill="black"/>
<rect x="4" y="4" width="48" height="48" rx="10" fill="#D0F04E" stroke="black" stroke-width="8"/>
<circle cx="28" cy="28" r="12" fill="black"/>
</svg>
